HIERARCHY
ROOT Hips
{
	OFFSET 0.000000 0.000000 0.000000 
	CHANNELS 6 Xposition Yposition Zposition Zrotation Yrotation Xrotation
	JOINT LeftUpLeg
	{
		OFFSET 1.363060 -1.794630 0.839290 
		CHANNELS 3 Zrotation Yrotation Xrotation
		JOINT LeftLeg
		{
			OFFSET 2.448110 -6.726130 0.000000 
			CHANNELS 3 Zrotation Yrotation Xrotation
			JOINT LeftFoot
			{
				OFFSET 2.562200 -7.039590 0.000000 
				CHANNELS 3 Zrotation Yrotation Xrotation
				JOINT LeftToeBase
				{
					OFFSET 0.157640 -0.433110 2.322550 
					CHANNELS 3 Zrotation Yrotation Xrotation
					End Site
					{
						OFFSET 0.000000 0.000000 0.000000 
					}
				}
			}
		}
	}
	JOINT RightUpLeg
	{
		OFFSET -1.305520 -1.794630 0.839290 
		CHANNELS 3 Zrotation Yrotation Xrotation
		JOINT RightLeg
		{
			OFFSET -2.542530 -6.985550 0.000000 
			CHANNELS 3 Zrotation Yrotation Xrotation
			JOINT RightFoot
			{
				OFFSET -2.568260 -7.056230 0.000000 
				CHANNELS 3 Zrotation Yrotation Xrotation
				JOINT RightToeBase
				{
					OFFSET -0.164730 -0.452590 2.363150 
					CHANNELS 3 Zrotation Yrotation Xrotation
					End Site
					{
						OFFSET 0.000000 0.000000 0.000000 
					}
				}
			}
		}
	}
	JOINT Spine
	{
		OFFSET 0.028270 2.035590 -0.193380 
		CHANNELS 3 Zrotation Yrotation Xrotation
		JOINT Spine1
		{
			OFFSET 0.056720 2.048850 -0.042750 
			CHANNELS 3 Zrotation Yrotation Xrotation
			JOINT Neck1
			{
				OFFSET -0.054170 1.746240 0.172020 
				CHANNELS 3 Zrotation Yrotation Xrotation
				JOINT Head
				{
					OFFSET 0.104070 1.761360 -0.123970 
					CHANNELS 3 Zrotation Yrotation Xrotation
					End Site
					{
						OFFSET 0.000000 0.000000 0.000000 
					}
				}
			}
			JOINT LeftArm
			{
				OFFSET 3.362410 1.200890 -0.311210 
				CHANNELS 3 Zrotation Yrotation Xrotation
				JOINT LeftForeArm
				{
					OFFSET 4.983000 -0.000000 -0.000000 
					CHANNELS 3 Zrotation Yrotation Xrotation
					JOINT LeftHand
					{
						OFFSET 3.483560 -0.000000 -0.000000 
						CHANNELS 3 Zrotation Yrotation Xrotation
						JOINT LeftHandIndex1
						{
							OFFSET 0.715260 -0.000000 -0.000000 
							CHANNELS 3 Zrotation Yrotation Xrotation
							End Site
							{
								OFFSET 0.000000 0.000000 0.000000 
							}
						}
					}
				}
			}
			JOINT RightArm
			{
				OFFSET -3.136600 1.374050 -0.404650 
				CHANNELS 3 Zrotation Yrotation Xrotation
				JOINT RightForeArm
				{
					OFFSET -5.241900 -0.000000 -0.000000 
					CHANNELS 3 Zrotation Yrotation Xrotation
					JOINT RightHand
					{
						OFFSET -3.444170 -0.000000 -0.000000 
						CHANNELS 3 Zrotation Yrotation Xrotation
						JOINT RightHandIndex1
						{
							OFFSET -0.622530 -0.000000 -0.000000 
							CHANNELS 3 Zrotation Yrotation Xrotation
							End Site
							{
								OFFSET 0.000000 0.000000 0.000000 
							}
						}
					}
				}
			}
		}
	}
}
MOTION
Frames: 12
Frame Time: 0.041667
0.679147 17.968448 -22.261680 -0.091085 -2.033807 -0.526658 -19.630017 -8.717362 -13.685393 0.172497 6.602268 24.369020 -0.448814 3.118633 15.840007 0.000000 0.000000 0.000000 20.621485 11.512654 -26.051454 -13.532801 -16.997354 69.483181 1.398099 -7.519832 10.171085 -0.119800 -2.231600 6.146100 2.359259 -0.324769 4.288536 1.815072 -0.210376 -8.768317 2.583549 -4.209721 20.025634 -0.234700 -1.780600 9.609700 -81.438347 2.454678 13.218396 9.830645 -17.005989 -1.475192 -0.460934 -0.767414 -4.803658 -7.125000 0.000000 0.000000 75.705455 1.822069 4.894842 -8.571669 19.007216 -1.859704 0.827977 -0.133436 8.328793 7.125000 0.000000 0.000000 
0.680347 17.944453 -22.097917 0.115078 -1.661379 -0.543245 -20.032536 -9.033088 -13.094383 0.146959 6.559669 24.734430 0.118659 0.021545 4.111483 0.013500 0.751200 2.064500 20.265276 11.506058 -27.067148 -13.250968 -17.000854 68.796660 1.236572 -6.689805 9.256184 -0.067300 -1.674100 4.605900 2.463527 -0.610198 4.056576 2.069900 -0.340605 -9.016603 2.600657 -4.048720 19.966540 -0.184000 -1.717000 9.512700 -81.473786 2.502250 13.547236 10.099859 -17.423720 -1.560143 -0.445145 -0.768809 -4.934508 -7.125000 0.000000 0.000000 75.570763 1.077462 4.770622 -8.526046 18.951946 -1.810229 0.907245 -0.198752 8.280313 7.125000 0.000000 0.000000 
0.680347 17.938955 -21.930355 0.159874 -1.400320 -0.588222 -20.122751 -9.104022 -12.503001 0.137951 6.491261 24.612563 0.002343 0.413331 4.194354 0.001200 -0.221800 -0.609500 20.056046 11.604269 -27.799325 -12.848404 -16.933319 67.676641 1.145958 -6.175170 8.421305 -0.034100 -1.191600 3.276200 2.578782 -0.794014 4.090830 2.210660 -0.432106 -8.965262 2.625228 -3.918575 19.901470 -0.144600 -1.663800 9.489900 -81.481209 2.114945 13.793964 10.322504 -17.767669 -1.631181 -0.433861 -0.777030 -4.975349 -7.125000 0.000000 0.000000 75.481515 0.696775 4.798212 -8.508186 18.921808 -1.729358 1.018093 -0.399883 7.973953 7.125000 0.000000 0.000000 
0.679547 17.940554 -21.762992 0.153015 -1.330958 -0.709550 -20.181519 -9.004021 -11.815512 0.151463 6.457832 24.623931 0.008124 0.390484 3.754967 0.002300 0.310700 0.853800 19.928042 11.869901 -28.333914 -12.428372 -16.829841 66.460738 1.087526 -5.832211 7.753457 -0.041400 -1.313400 3.611600 2.660786 -0.852600 4.161287 2.278579 -0.465952 -8.951019 2.479242 -3.915313 19.928016 -0.200200 -1.673400 9.498100 -81.405669 1.657906 14.133556 10.530312 -18.096591 -1.697380 -0.425611 -0.798651 -4.987551 -7.125000 0.000000 0.000000 75.427175 0.470644 4.448709 -8.360578 18.685582 -1.643512 1.039027 -0.531750 8.014964 7.125000 0.000000 0.000000 
0.677647 17.926857 -21.604128 0.222944 -1.158592 -0.761728 -20.318649 -8.817014 -11.217056 0.167879 6.433156 24.670993 0.128319 0.064269 2.197606 0.009900 0.643800 1.769200 19.695749 12.048716 -29.001866 -11.972315 -16.715619 65.099187 1.063526 -5.668538 7.301552 -0.039500 -1.282700 3.526900 2.632352 -0.901558 4.171582 2.283899 -0.497594 -9.042687 2.348242 -4.032223 20.054572 -0.276800 -1.728400 9.550800 -81.188842 1.200693 14.615517 10.748622 -18.447108 -1.769470 -0.418501 -0.817580 -4.970443 -7.125000 0.000000 0.000000 75.471798 0.186935 4.159204 -8.257138 18.522101 -1.610108 1.042697 -0.517575 7.763218 7.125000 0.000000 0.000000 
0.672348 17.907462 -21.449163 0.272940 -0.710114 -0.733042 -20.405139 -8.873609 -10.754479 0.182060 6.410457 24.688232 0.084867 0.178876 2.314197 0.003100 -0.361000 -0.991900 19.429652 12.029787 -29.777568 -11.467852 -16.583094 63.580472 1.063067 -5.600411 6.773379 -0.038100 -1.259600 3.463500 2.737959 -1.127635 4.242322 2.465501 -0.605957 -8.955443 2.234517 -3.984865 19.927159 -0.295400 -1.728500 9.488600 -81.149400 0.606058 14.992089 10.913135 -18.679282 -1.829669 -0.412132 -0.778501 -5.251842 -7.125000 0.000000 0.000000 75.396215 -0.014886 4.129872 -8.204084 18.441092 -1.590635 1.056410 -0.500954 7.444461 7.125000 0.000000 0.000000 
0.667949 17.891465 -21.293098 0.412636 -0.101964 -0.599291 -20.583439 -9.130674 -10.293307 0.185326 6.375305 24.696963 0.246483 -0.397018 1.830106 0.001100 -0.209300 -0.575000 19.037245 11.896604 -30.627558 -10.923099 -16.434488 61.932193 1.038816 -5.482674 6.491432 -0.050300 -1.447700 3.981500 2.890049 -1.497962 4.090725 2.779882 -0.776569 -9.036049 2.193181 -3.830581 19.905481 -0.266000 -1.673300 9.446900 -81.196450 0.383283 15.479818 11.136128 -19.003388 -1.911320 -0.409833 -0.739188 -5.634789 -7.125000 0.000000 0.000000 75.209899 -0.644593 4.643502 -8.302932 18.643410 -1.614346 1.076772 -0.528593 6.944453 7.125000 0.000000 0.000000 
0.664950 17.885667 -21.129435 0.521943 0.061985 -0.525932 -20.727031 -8.959002 -9.827681 0.183294 6.328839 24.661432 0.399805 -0.915751 1.293738 0.002700 0.336300 0.924100 18.718992 12.012175 -31.209661 -10.328293 -16.217101 60.101049 1.029134 -5.414962 6.219102 -0.051000 -1.457400 4.008400 2.981329 -1.537104 3.810307 2.960024 -0.790610 -9.445346 2.280354 -3.831786 20.427312 -0.226400 -1.655800 9.665700 -81.160196 0.336578 16.184278 11.375387 -19.388773 -1.994455 -0.414131 -0.759856 -5.700916 -7.125000 0.000000 0.000000 75.073224 -1.428250 4.691788 -8.357486 18.765572 -1.632269 1.120759 -0.467757 6.542553 7.125000 0.000000 0.000000 
0.663150 17.880568 -20.960973 0.717922 0.064858 -0.560904 -20.954508 -8.632324 -9.214932 0.168588 6.245091 24.519262 0.399527 -0.897052 0.942212 0.007800 0.572100 1.572100 18.307288 12.218488 -31.557577 -9.704570 -15.947361 58.130284 1.116728 -5.670587 5.580257 -0.023500 -0.989600 2.720100 2.849074 -1.457352 3.778481 2.913338 -0.761544 -9.623774 2.436246 -3.886003 20.748403 -0.194300 -1.648100 9.832300 -80.860439 -0.084880 17.025757 11.675833 -19.875177 -2.096061 -0.397981 -0.826254 -6.091430 -7.125000 0.000000 0.000000 75.254564 -1.827685 3.979905 -8.330683 18.709891 -1.637498 1.144640 -0.334938 7.042879 7.125000 0.000000 0.000000 
0.659651 17.863572 -20.790812 0.985463 0.361264 -0.543721 -21.239497 -8.397918 -8.598647 0.151975 6.153916 24.370045 0.460649 -1.084420 0.437880 0.007400 0.555100 1.525200 17.783666 12.187333 -31.950197 -9.052851 -15.653218 56.030400 1.282158 -6.205719 4.915748 -0.009800 -0.638100 1.753500 2.826660 -1.686950 3.856921 3.064830 -0.874679 -9.422814 2.533832 -3.799095 20.432710 -0.140200 -1.611100 9.698000 -80.730784 -0.549348 17.376914 11.970646 -20.315261 -2.203016 -0.383015 -0.832593 -6.604188 -7.125000 0.000000 0.000000 75.215305 -2.233977 4.264019 -8.407658 18.868957 -1.677940 1.120518 -0.341468 7.076156 7.125000 0.000000 0.000000 
0.653453 17.855673 -20.623449 1.294919 0.682262 -0.418594 -21.492609 -8.214972 -7.851908 0.037034 5.902823 23.739147 0.520739 -1.327279 0.347223 0.006100 0.504900 1.387300 17.188173 12.128606 -32.305398 -8.320832 -15.291298 53.684179 1.337243 -6.368802 4.541844 -0.009000 -0.611300 1.680000 2.840747 -1.914904 3.953055 3.302262 -0.984455 -9.144464 2.504828 -3.749818 19.977036 -0.140500 -1.605700 9.521400 -80.648079 -1.091365 17.755677 12.266749 -20.750392 -2.313034 -0.372164 -0.832457 -7.034108 -7.125000 0.000000 0.000000 75.128548 -2.445723 4.638904 -8.421106 18.922699 -1.681309 1.095446 -0.426986 6.848746 7.125000 0.000000 0.000000 
0.644455 17.860272 -20.460486 1.131460 0.906446 -0.324284 -21.228212 -8.114829 -7.299066 -0.026435 5.776013 23.391797 0.530460 -1.340037 0.261855 0.004800 0.449300 1.234600 17.139193 12.224153 -32.476005 -7.577174 -14.826112 51.197235 1.502743 -6.902967 4.461701 -0.035000 -1.207500 3.319900 2.695758 -1.804034 4.341560 3.022007 -0.966678 -8.842168 2.537097 -4.088939 20.098195 -0.251100 -1.718500 9.763300 -80.166755 -2.354231 18.582291 12.483997 -21.092110 -2.394128 -0.361581 -0.864230 -7.028214 -7.125000 0.000000 0.000000 75.559440 -1.990346 4.167099 -8.420881 18.886021 -1.681314 1.078457 -0.439911 6.743087 7.125000 0.000000 0.000000 
